<?xml version="1.0" encoding="UTF-8" standalone="no"?>
<!-- Created with Inkscape (http://www.inkscape.org/) -->

<svg
   xmlns:dc="http://purl.org/dc/elements/1.1/"
   xmlns:cc="http://creativecommons.org/ns#"
   xmlns:rdf="http://www.w3.org/1999/02/22-rdf-syntax-ns#"
   xmlns:svg="http://www.w3.org/2000/svg"
   xmlns="http://www.w3.org/2000/svg"
   xmlns:sodipodi="http://sodipodi.sourceforge.net/DTD/sodipodi-0.dtd"
   xmlns:inkscape="http://www.inkscape.org/namespaces/inkscape"
   width="368.70001"
   height="368.89999"
   viewBox="0 0 368.69977 368.9"
   id="svg3474"
   version="1.1"
   inkscape:version="0.91 r13725"
   sodipodi:docname="speaker.svg">
  <defs
     id="defs3476">
    <radialGradient
       id="radialGradient4437"
       gradientUnits="userSpaceOnUse"
       cy="579.81"
       cx="341.45001"
       gradientTransform="matrix(1.6155,-0.78861,0.91752,1.8795,-694.27,-530.59)"
       r="135.34">
      <stop
         id="stop3615"
         stop-color="#8c8c8c"
         offset="0" />
      <stop
         id="stop3617"
         offset="1" />
    </radialGradient>
    <radialGradient
       id="radialGradient4434"
       gradientUnits="userSpaceOnUse"
       cy="511.60001"
       cx="309.75"
       gradientTransform="matrix(1.2249,0,0,1.2249,-37.023,-417.65)"
       r="36.535">
      <stop
         id="stop3607"
         stop-color="#787878"
         offset="0" />
      <stop
         id="stop3609"
         stop-color="#060000"
         offset="1" />
    </radialGradient>
    <filter
       id="filter3969"
       y="-0.648"
       width="2.296"
       x="-0.648"
       height="2.296">
      <feGaussianBlur
         id="feGaussianBlur3971"
         stdDeviation="6.49124" />
    </filter>
    <linearGradient
       id="linearGradient4347"
       y2="700.84003"
       gradientUnits="userSpaceOnUse"
       y1="374.84"
       x2="458.72"
       x1="228.22">
      <stop
         id="stop3985"
         stop-color="#fff"
         offset="0" />
      <stop
         id="stop3995"
         stop-color="#fff"
         stop-opacity="0"
         offset=".19813" />
      <stop
         id="stop3991"
         stop-color="#fff"
         stop-opacity="0"
         offset=".57631" />
      <stop
         id="stop3993"
         stop-color="#fff"
         offset=".81139" />
      <stop
         id="stop3987"
         stop-color="#fff"
         offset="1" />
    </linearGradient>
    <filter
       id="filter4009">
      <feGaussianBlur
         id="feGaussianBlur4011"
         stdDeviation="2.925" />
    </filter>
    <linearGradient
       id="linearGradient4429"
       x1="192.28"
       gradientUnits="userSpaceOnUse"
       y1="408.84"
       gradientTransform="translate(33.941,-299.81)"
       x2="464.66"
       y2="589.84003">
      <stop
         id="stop4033"
         offset="0" />
      <stop
         id="stop4039"
         stop-color="#fff"
         stop-opacity="0"
         offset=".5" />
      <stop
         id="stop4041"
         stop-color="#fff"
         stop-opacity="0"
         offset=".75" />
      <stop
         id="stop4035"
         stop-color="#fff"
         offset="1" />
    </linearGradient>
    <filter
       id="filter4063">
      <feGaussianBlur
         id="feGaussianBlur4065"
         stdDeviation="1.1423125" />
    </filter>
    <linearGradient
       id="linearGradient4426"
       x1="183.56"
       gradientUnits="userSpaceOnUse"
       y1="380.84"
       gradientTransform="translate(33.941,-299.81)"
       x2="480.94"
       y2="657.84003">
      <stop
         id="stop4333"
         stop-color="#fff"
         stop-opacity=".78022"
         offset="0" />
      <stop
         id="stop4339"
         stop-color="#fff"
         stop-opacity="0"
         offset=".5" />
      <stop
         id="stop4341"
         stop-color="#fff"
         stop-opacity="0"
         offset=".75" />
      <stop
         id="stop4335"
         stop-color="#444343"
         stop-opacity=".71429"
         offset="1" />
    </linearGradient>
  </defs>
  <sodipodi:namedview
     id="base"
     pagecolor="#ffffff"
     bordercolor="#666666"
     borderopacity="1.0"
     inkscape:pageopacity="0.0"
     inkscape:pageshadow="2"
     inkscape:zoom="1.4"
     inkscape:cx="-50.69026"
     inkscape:cy="271.30375"
     inkscape:document-units="px"
     inkscape:current-layer="layer1"
     showgrid="false"
     units="px"
     fit-margin-top="0"
     fit-margin-left="0"
     fit-margin-right="0"
     fit-margin-bottom="0"
     inkscape:window-width="1366"
     inkscape:window-height="720"
     inkscape:window-x="0"
     inkscape:window-y="0"
     inkscape:window-maximized="1" />
  <metadata
     id="metadata3479">
    <rdf:RDF>
      <cc:Work
         rdf:about="">
        <dc:format>image/svg+xml</dc:format>
        <dc:type
           rdf:resource="http://purl.org/dc/dcmitype/StillImage" />
        <dc:title></dc:title>
      </cc:Work>
    </rdf:RDF>
  </metadata>
  <g
     inkscape:label="Layer 1"
     inkscape:groupmode="layer"
     id="layer1"
     transform="translate(-1.6006816,-687.57592)">
    <g
       transform="translate(-163.49175,648.01743)"
       id="layer1-3">
      <g
         id="g4442">
        <path
           inkscape:connector-curvature="0"
           id="path4352"
           style="color:#000000;stroke:#666666"
           d="m 349.41,40.124 c -100.59,0 -183.91,83.312 -183.91,183.91 0,100.59 83.312,183.91 183.91,183.91 100.59,0 183.91,-83.312 183.91,-183.91 0,-100.59 -83.312,-183.91 -183.91,-183.91 z" />
        <path
           inkscape:connector-curvature="0"
           id="path4140"
           style="color:#000000;fill:#999999;stroke:#666666"
           d="m 349.41,42.343 c -99.364,0 -181.69,82.323 -181.69,181.69 0,99.364 82.323,181.69 181.69,181.69 99.364,0 181.69,-82.323 181.69,-181.69 0,-99.364 -82.323,-181.69 -181.69,-181.69 z" />
        <path
           inkscape:connector-curvature="0"
           id="path4142"
           style="color:#000000"
           d="m 349.41,65.812 c -86.344,0 -158.22,71.875 -158.22,158.22 0,86.344 71.875,158.22 158.22,158.22 86.344,0 158.22,-71.875 158.22,-158.22 0,-86.344 -71.875,-158.22 -158.22,-158.22 z" />
        <path
           inkscape:connector-curvature="0"
           id="path4144"
           style="color:#000000;fill:url(#radialGradient4437)"
           d="m 349.41,89.187 c -73.298,0 -134.84,61.546 -134.84,134.84 0,73.298 61.546,134.84 134.84,134.84 73.298,0 134.84,-61.546 134.84,-134.84 0,-73.298 -61.546,-134.84 -134.84,-134.84 z" />
        <path
           inkscape:connector-curvature="0"
           id="path4146"
           style="color:#000000;fill:url(#radialGradient4434)"
           d="m 393.55,224.03 c 0,24.379 -19.763,44.141 -44.141,44.141 -24.379,0 -44.141,-19.763 -44.141,-44.141 0,-24.379 19.763,-44.141 44.141,-44.141 24.379,0 44.141,19.763 44.141,44.141 z" />
        <path
           inkscape:connector-curvature="0"
           id="path4148"
           style="color:#000000;fill:#ffffff;filter:url(#filter3969)"
           d="m 349.31,205.25 c 0,6.6389 -5.3819,12.021 -12.021,12.021 -6.6389,0 -12.021,-5.3819 -12.021,-12.021 0,-6.6389 5.3819,-12.021 12.021,-12.021 6.6389,0 12.021,5.3819 12.021,12.021 z" />
        <path
           inkscape:connector-curvature="0"
           id="path4345"
           style="color:#000000;fill:url(#linearGradient4347);stroke:#999999;stroke-width:0.92439002;filter:url(#filter4009)"
           d="m 315.47,379.31 c -78.861,0 -144.53,65.67 -144.53,144.53 0,78.861 65.67,144.53 144.53,144.53 C 394.33,668.38 460,602.7 460,523.84 460,444.98 394.33,379.31 315.47,379.31 Z m 0,6.5312 c 75.331,0 138,62.669 138,138 0,75.331 -62.669,138 -138,138 -75.331,0 -138,-62.669 -138,-138 0,-75.331 62.669,-138 138,-138 z"
           transform="matrix(1.0261,0,0,1.0261,25.708,-313.48)" />
        <path
           inkscape:connector-curvature="0"
           id="path4152"
           style="color:#000000;fill:url(#linearGradient4429);filter:url(#filter4063)"
           d="m 350.41,60.843 c -89.064,0 -163.19,74.124 -163.19,163.19 0,89.064 74.124,163.19 163.19,163.19 89.064,0 163.19,-74.124 163.19,-163.19 0,-89.064 -74.124,-163.19 -163.19,-163.19 z m 0,4.9688 c 86.344,0 158.22,71.875 158.22,158.22 0,86.344 -71.875,158.22 -158.22,158.22 -86.344,0 -158.22,-71.875 -158.22,-158.22 0,-86.344 71.875,-158.22 158.22,-158.22 z" />
        <path
           inkscape:connector-curvature="0"
           id="path4284"
           style="color:#000000;fill:url(#linearGradient4426)"
           d="m 349.19,41.343 c -99.364,0 -181.69,82.323 -181.69,181.69 0,99.364 82.323,181.69 181.69,181.69 99.364,0 181.69,-82.323 181.69,-181.69 0,-99.364 -82.323,-181.69 -181.69,-181.69 z m 0,4 c 97.183,0 177.72,80.505 177.72,177.69 0,97.183 -80.536,177.69 -177.72,177.69 -97.183,0 -177.69,-80.505 -177.69,-177.69 0,-97.183 80.505,-177.69 177.69,-177.69 z" />
        <g
           id="g4385"
           transform="translate(34.982,-299.66)">
          <g
             id="g4355"
             transform="matrix(1.0583,0.62048,-0.62048,1.0583,150.91,-152.88)">
            <g
               id="g4108"
               transform="translate(12.5,-63.5)">
              <g
                 id="g4103"
                 transform="translate(2.75,0)">
                <path
                   inkscape:connector-curvature="0"
                   id="path4100"
                   style="color:#000000;fill:#b3b3b3"
                   d="m 308.69,346.28 c -3.4416,0 -6.2174,2.7758 -6.2174,6.2174 0,3.4416 2.7724,6.2514 6.2174,6.2514 3.445,0 6.2514,-2.8064 6.2514,-6.2514 0,-3.445 -2.8098,-6.2174 -6.2514,-6.2174 z" />
                <path
                   inkscape:connector-curvature="0"
                   id="path4088"
                   style="color:#000000;fill:#4d4d4d"
                   d="m 314.46,352.51 c 0,3.1843 -2.5814,5.7657 -5.7657,5.7657 -3.1843,0 -5.7657,-2.5814 -5.7657,-5.7657 0,-3.1843 2.5814,-5.7657 5.7657,-5.7657 3.1843,0 5.7657,2.5814 5.7657,5.7657 z" />
                <path
                   inkscape:connector-curvature="0"
                   id="path4092"
                   style="color:#000000;fill:#333333"
                   d="m 308.1,346.75 c -0.12552,0.0127 -0.2507,0.0473 -0.37372,0.068 l 0,11.348 c 0.31297,0.0526 0.65735,0.10187 0.98527,0.10187 0.32792,0 0.63832,-0.0494 0.9513,-0.10187 l 0,-11.348 c -0.31298,-0.0526 -0.62338,-0.068 -0.9513,-0.068 -0.19902,0 -0.41772,-0.0197 -0.61155,0 z" />
              </g>
            </g>
          </g>
          <g
             id="g4373"
             transform="matrix(1.0583,0.62048,-0.62048,1.0583,150.91,186.53)">
            <g
               id="g4375"
               transform="translate(12.5,-63.5)">
              <g
                 id="g4377"
                 transform="translate(2.75,0)">
                <path
                   inkscape:connector-curvature="0"
                   id="path4379"
                   style="color:#000000;fill:#b3b3b3"
                   d="m 308.69,346.28 c -3.4416,0 -6.2174,2.7758 -6.2174,6.2174 0,3.4416 2.7724,6.2514 6.2174,6.2514 3.445,0 6.2514,-2.8064 6.2514,-6.2514 0,-3.445 -2.8098,-6.2174 -6.2514,-6.2174 z" />
                <path
                   inkscape:connector-curvature="0"
                   id="path4381"
                   style="color:#000000;fill:#4d4d4d"
                   d="m 314.46,352.51 c 0,3.1843 -2.5814,5.7657 -5.7657,5.7657 -3.1843,0 -5.7657,-2.5814 -5.7657,-5.7657 0,-3.1843 2.5814,-5.7657 5.7657,-5.7657 3.1843,0 5.7657,2.5814 5.7657,5.7657 z" />
                <path
                   inkscape:connector-curvature="0"
                   id="path4383"
                   style="color:#000000;fill:#333333"
                   d="m 308.1,346.75 c -0.12552,0.0127 -0.2507,0.0473 -0.37372,0.068 l 0,11.348 c 0.31297,0.0526 0.65735,0.10187 0.98527,0.10187 0.32792,0 0.63832,-0.0494 0.9513,-0.10187 l 0,-11.348 c -0.31298,-0.0526 -0.62338,-0.068 -0.9513,-0.068 -0.19902,0 -0.41772,-0.0197 -0.61155,0 z" />
              </g>
            </g>
          </g>
        </g>
        <g
           id="g4399"
           transform="matrix(0,-1,1,0,-174.28,538.46)">
          <g
             id="g4401"
             transform="matrix(1.0583,0.62048,-0.62048,1.0583,150.91,-152.88)">
            <g
               id="g4403"
               transform="translate(12.5,-63.5)">
              <g
                 id="g4405"
                 transform="translate(2.75,0)">
                <path
                   inkscape:connector-curvature="0"
                   id="path4407"
                   style="color:#000000;fill:#b3b3b3"
                   d="m 308.69,346.28 c -3.4416,0 -6.2174,2.7758 -6.2174,6.2174 0,3.4416 2.7724,6.2514 6.2174,6.2514 3.445,0 6.2514,-2.8064 6.2514,-6.2514 0,-3.445 -2.8098,-6.2174 -6.2514,-6.2174 z" />
                <path
                   inkscape:connector-curvature="0"
                   id="path4409"
                   style="color:#000000;fill:#4d4d4d"
                   d="m 314.46,352.51 c 0,3.1843 -2.5814,5.7657 -5.7657,5.7657 -3.1843,0 -5.7657,-2.5814 -5.7657,-5.7657 0,-3.1843 2.5814,-5.7657 5.7657,-5.7657 3.1843,0 5.7657,2.5814 5.7657,5.7657 z" />
                <path
                   inkscape:connector-curvature="0"
                   id="path4411"
                   style="color:#000000;fill:#333333"
                   d="m 308.1,346.75 c -0.12552,0.0127 -0.2507,0.0473 -0.37372,0.068 l 0,11.348 c 0.31297,0.0526 0.65735,0.10187 0.98527,0.10187 0.32792,0 0.63832,-0.0494 0.9513,-0.10187 l 0,-11.348 c -0.31298,-0.0526 -0.62338,-0.068 -0.9513,-0.068 -0.19902,0 -0.41772,-0.0197 -0.61155,0 z" />
              </g>
            </g>
          </g>
          <g
             id="g4413"
             transform="matrix(1.0583,0.62048,-0.62048,1.0583,150.91,186.53)">
            <g
               id="g4415"
               transform="translate(12.5,-63.5)">
              <g
                 id="g4417"
                 transform="translate(2.75,0)">
                <path
                   inkscape:connector-curvature="0"
                   id="path4419"
                   style="color:#000000;fill:#b3b3b3"
                   d="m 308.69,346.28 c -3.4416,0 -6.2174,2.7758 -6.2174,6.2174 0,3.4416 2.7724,6.2514 6.2174,6.2514 3.445,0 6.2514,-2.8064 6.2514,-6.2514 0,-3.445 -2.8098,-6.2174 -6.2514,-6.2174 z" />
                <path
                   inkscape:connector-curvature="0"
                   id="path4421"
                   style="color:#000000;fill:#4d4d4d"
                   d="m 314.46,352.51 c 0,3.1843 -2.5814,5.7657 -5.7657,5.7657 -3.1843,0 -5.7657,-2.5814 -5.7657,-5.7657 0,-3.1843 2.5814,-5.7657 5.7657,-5.7657 3.1843,0 5.7657,2.5814 5.7657,5.7657 z" />
                <path
                   inkscape:connector-curvature="0"
                   id="path4423"
                   style="color:#000000;fill:#333333"
                   d="m 308.1,346.75 c -0.12552,0.0127 -0.2507,0.0473 -0.37372,0.068 l 0,11.348 c 0.31297,0.0526 0.65735,0.10187 0.98527,0.10187 0.32792,0 0.63832,-0.0494 0.9513,-0.10187 l 0,-11.348 c -0.31298,-0.0526 -0.62338,-0.068 -0.9513,-0.068 -0.19902,0 -0.41772,-0.0197 -0.61155,0 z" />
              </g>
            </g>
          </g>
        </g>
      </g>
    </g>
  </g>
</svg>
